<svg xmlns="http://www.w3.org/2000/svg" width="156.24" height="166.32" viewBox="0 0 279 297">
  <g id="Group_789" data-name="Group 789" transform="translate(-821 -303)">
    <g id="Group_772" data-name="Group 772" transform="translate(384 -157)">
      <rect id="Rectangle_391" data-name="Rectangle 391" width="279" height="297" transform="translate(437 460)" fill="#f1f9ff"/>
      <circle id="Ellipse_139" data-name="Ellipse 139" cx="20" cy="20" r="20" transform="translate(558 525)" fill="#fff"/>
      <text id="Add_new_workplace" data-name="Add new workplace" transform="translate(505 647)" fill="#0a0a0a" font-size="11" font-family="Arial-BoldMT, Arial" font-weight="700"><tspan x="-51.345" y="0">Add new workplace</tspan></text>
      <text id="_" data-name="$$" transform="translate(577 694)" font-size="14" font-family="ArialMT, Arial"><tspan x="-7.786" y="0">$$</tspan></text>
      <text id="_2" data-name="+" transform="translate(577 559)" font-size="41" font-family="Arial-BoldMT, Arial" font-weight="700"><tspan x="-11.972" y="0">+</tspan></text>
      <rect id="Rectangle_1468" data-name="Rectangle 1468" width="279" height="297" transform="translate(437 460)" fill="#4b666e"/>
      <path id="Path_145" data-name="Path 145" d="M50,0A50,50,0,1,1,0,50,50,50,0,0,1,50,0Z" transform="translate(527 495)" fill="#fff"/>
      <text id="Add_new_workplace_" data-name="Add new workplace
" transform="translate(578 634)" fill="#0a0a0a" font-size="28" font-family="Arial-BoldMT, Arial" font-weight="700"><tspan x="-130.696" y="0">Add new workplace</tspan><tspan x="0" y="19"></tspan></text>
      <text id="_3" data-name="$$" transform="translate(578 677)" font-size="20" font-family="ArialMT, Arial"><tspan x="-11.123" y="0">$$</tspan></text>
      <text id="_4" data-name="+" transform="translate(577 587)" font-size="120" font-family="Arial-BoldMT, Arial" font-weight="700"><tspan x="-35.039" y="0">+</tspan></text>
    </g>
  </g>
</svg>
