<svg xmlns="http://www.w3.org/2000/svg" width="91" height="122" viewBox="0 0 182.979 244.352">
  <g id="layer2" transform="translate(-61.893 -213.117)">
    <g id="g3033" transform="translate(1.429 -17.143)">
      <path id="path4138" d="M206.57,471.71c-.744-3.5-1.581-7.039-2.545-10.508-1.028-3.7-2.178-7.323-3.444-10.75a86.768,86.768,0,0,0-4.124-9.543c-.746-1.451-1.526-2.83-2.325-4.1a37.568,37.568,0,0,0-2.479-3.51,49.161,49.161,0,0,0-4.541-5.09,42.664,42.664,0,0,0-4.1-3.532,30.075,30.075,0,0,0-3.137-2.084c-.3-.171-.532-.279-.768-.395a4.708,4.708,0,0,1-1.009,1.316,6.173,6.173,0,0,1-1.4,1.009,4.136,4.136,0,0,1-1.47.461,1.719,1.719,0,0,1-1.207-.263,12.794,12.794,0,0,0,2.742-2.852,3.025,3.025,0,0,0,.614-1.8,1.932,1.932,0,0,0-.636-1.207,5.9,5.9,0,0,0-1.667-1.075,16.407,16.407,0,0,0-3.291-1.053c-1.122-.245-2.2-.39-2.962-.483a11.034,11.034,0,0,0,.351,2.106,5.694,5.694,0,0,0,.768,1.689,3.357,3.357,0,0,0,1.36.527c.416.068.826.08,1.36.176a24.428,24.428,0,0,1-2.742,1.931,22.979,22.979,0,0,1-2.786,1.448,22.432,22.432,0,0,1-2.786,1.009,23.245,23.245,0,0,1-2.786.614,25.129,25.129,0,0,1-5.353.241,29.343,29.343,0,0,1-4.892-.724,34.41,34.41,0,0,1-4.19-1.272c-1.258-.467-2.352-.957-3.269-1.4a29.276,29.276,0,0,1-2.918-1.6c.162-.2.8-.175,1.4-.241a2.4,2.4,0,0,0,.834-.2.662.662,0,0,0,.373-.592,21.579,21.579,0,0,0,.307-3.335,25.329,25.329,0,0,0-2.654.79,13.445,13.445,0,0,0-2.852,1.4,5.4,5.4,0,0,0-1.426,1.316,2.354,2.354,0,0,0-.461,1.492,4.1,4.1,0,0,0,.856,2.084,14.274,14.274,0,0,0,2.962,2.94,4.821,4.821,0,0,1-1.558.022,3.687,3.687,0,0,1-1.36-.527,6.727,6.727,0,0,1-1.338-1.163,18.208,18.208,0,0,1-1.47-1.843,14.466,14.466,0,0,0-2.918,1.47,30.38,30.38,0,0,0-3.6,2.7,52.086,52.086,0,0,0-4.629,4.563,58,58,0,0,0-8.512,12.263,77.165,77.165,0,0,0-3.378,7.305c-1.025,2.555-1.947,5.233-2.742,7.964-.741,2.545-1.353,5.149-1.865,7.788,32.657,7.1,63.375,10.1,99.664,4.519Z" fill="#ffe82e"/>
      <path id="path4146" d="M193.03,286.42c.219,1.042.4,2.057.527,3.049a20.451,20.451,0,0,1,.2,2.874,13.616,13.616,0,0,1-.548,3.817,9.514,9.514,0,0,1-.7,1.689,8.156,8.156,0,0,1-1.009,1.492l-.812.943-.834-.921A15.843,15.843,0,0,0,187,297.038a27.1,27.1,0,0,0-4.475-2.369,23.9,23.9,0,0,0-5.068-1.492,18.627,18.627,0,0,0-2.654-.285,15.664,15.664,0,0,0-2.676.154,16.419,16.419,0,0,1-.241,3.8,31.2,31.2,0,0,1-1.382,5.068l-.548,1.579-1.229-1.141c-1.65-1.516-3.068-2.86-4.388-3.993a20.1,20.1,0,0,0-3.8-2.7,11.037,11.037,0,0,0-1.711-.7,10.015,10.015,0,0,0-1.843-.417,12.434,12.434,0,0,0-2.106-.066,18.635,18.635,0,0,0-2.435.307c.226.469.456.96.658,1.492a19.036,19.036,0,0,1,.921,3.225,19.43,19.43,0,0,1,.329,3.817,20.336,20.336,0,0,1-.5,4.3,24.048,24.048,0,0,1-1.645,4.76l-.57,1.25-1.1-.834c-1.253-.945-2.5-1.865-3.861-2.72a29.837,29.837,0,0,0-4.519-2.347,32.131,32.131,0,0,0-5.77-1.733,50.129,50.129,0,0,0-7.656-.943,40.5,40.5,0,0,1-4.607-.5,45.738,45.738,0,0,1-4.475-.987c-1.46-.4-2.866-.87-4.234-1.382s-2.687-1.074-3.927-1.667c-1.288-.616-2.506-1.267-3.62-1.931a29.713,29.713,0,0,1-3.027-2.04,4.131,4.131,0,0,0-.7.592,5.964,5.964,0,0,0-.878,1.207,7.143,7.143,0,0,0-.592,1.382,8.812,8.812,0,0,0-.351,1.865,12.287,12.287,0,0,0,.044,2.413,18.791,18.791,0,0,0,.614,3.027l.68,2.347a10.344,10.344,0,0,1,2.9-2.26,9.406,9.406,0,0,1,3.225-.987,13.11,13.11,0,0,1,4.059.022,14.3,14.3,0,0,1,4.1,1.294,12.454,12.454,0,0,1,1.843,1.119,10.912,10.912,0,0,1,1.6,1.426,9.983,9.983,0,0,1,1.294,1.755,9.758,9.758,0,0,1,.9,2.084,21.786,21.786,0,0,0-2.786-.439,19.489,19.489,0,0,0-2.611-.044,17.866,17.866,0,0,0-4.629.812,18.657,18.657,0,0,0-3.883,1.755,22.249,22.249,0,0,0-3.181,2.325,25.245,25.245,0,0,0-2.479,2.479,26.7,26.7,0,0,0-1.755,2.26,21.069,21.069,0,0,0-1.4,2.26,10.143,10.143,0,0,1-1.009-2.281A10.905,10.905,0,0,1,99.4,320.6a12.564,12.564,0,0,1,.066-2.325,14.816,14.816,0,0,1,.417-2.238,16.5,16.5,0,0,1,1.6-3.861,10.977,10.977,0,0,1,1.952-2.567l-2.106-1.382a22.326,22.326,0,0,1-4.015-3.313,19.408,19.408,0,0,1-2.786-3.751c-.146,1.185-.116,1.363-.395,2.984a57.951,57.951,0,0,1-1.251,5.726,27.1,27.1,0,0,1-.878,2.676,14.286,14.286,0,0,1-1.119,2.26,15.017,15.017,0,0,0-1.6,3.817,27.188,27.188,0,0,0-.834,4.519,27.922,27.922,0,0,0-.11,4.256,12.428,12.428,0,0,0,.439,2.962,4.814,4.814,0,0,1-1.623-.2,3.266,3.266,0,0,1-1.4-.878c.132,1.134.264,2.366.373,3.664a79.482,79.482,0,0,1,.307,8.775,43.215,43.215,0,0,1-.329,4.344A25.156,25.156,0,0,1,85.293,350c-.708,6.105-.987,9.17-.987,9.17H82.134s-.12-1.3-.154-1.667a3.73,3.73,0,0,1-.395,1.141,5.088,5.088,0,0,1-.921,1.185,9.278,9.278,0,0,1-1.4,1.1h-.022v.022a3.922,3.922,0,0,1-1.6.592,2.794,2.794,0,0,1-1.514-.2,2.672,2.672,0,0,1-1.1-.921A3.244,3.244,0,0,1,74.5,359.1a3.4,3.4,0,0,1,.066-1.36,4.034,4.034,0,0,1,.592-1.338,4.88,4.88,0,0,1,1.141-1.163,5.925,5.925,0,0,1,1.645-.834c-.5-.44-.984-.861-1.47-1.228a7.565,7.565,0,0,0-1.514-.921,5.638,5.638,0,0,0-1.821-.461,8.275,8.275,0,0,0-2.347.154,2.623,2.623,0,0,1,.7-.965,3.417,3.417,0,0,1,1.1-.658,4.622,4.622,0,0,1,1.382-.263,6.081,6.081,0,0,1,1.579.132,7.574,7.574,0,0,1,1.689.592,8.566,8.566,0,0,1,1.667,1.053,10.026,10.026,0,0,1,1.558,1.579,12.2,12.2,0,0,1,1.338,2.15c-.108-1.2-.131-1.509-.263-3.049-.12-1.4-.23-2.719-.329-3.9a22.179,22.179,0,0,0-1.514-2.15,18.517,18.517,0,0,0-2.676-2.764,11.67,11.67,0,0,0-2.194-1.448,7.935,7.935,0,0,0-2.457-.79,6.552,6.552,0,0,0-2.655.176,9,9,0,0,0-2.984,1.514,9.235,9.235,0,0,0-1.4,1.294,9.738,9.738,0,0,0-1.119,1.536,11.26,11.26,0,0,0-1.338,3.664,13.362,13.362,0,0,0-.088,4.124A14.863,14.863,0,0,0,63.992,358a15.8,15.8,0,0,0,2.457,3.817,16.132,16.132,0,0,0,1.711,1.689,16.994,16.994,0,0,0,2.04,1.514,18.691,18.691,0,0,0,2.413,1.25,20.66,20.66,0,0,0,2.742.987,24.535,24.535,0,0,0,3.137.636,28.846,28.846,0,0,0,3.488.285,61.187,61.187,0,0,1-.219-6.559l2.194.044a56.809,56.809,0,0,0,.439,8.665,39.085,39.085,0,0,0,1.579,7.086,30.38,30.38,0,0,0,2.567,5.726,28.828,28.828,0,0,0,3.335,4.651,31.99,31.99,0,0,0,3.971,3.773,42.34,42.34,0,0,0,4.432,3.093c1.542.946,3.143,1.811,4.76,2.633s3.255,1.606,4.892,2.369a50.675,50.675,0,0,0,5.7,2.194c2.2.714,4.694,1.407,7.415,2.04s5.674,1.214,8.819,1.711,6.485.9,9.96,1.207,7.083.511,10.793.57,7.513-.022,11.364-.263,7.751-.653,11.649-1.25a114.393,114.393,0,0,0,11.649-2.391,40.3,40.3,0,0,0,5.309-1.777,35.056,35.056,0,0,0,4.563-2.3,32.8,32.8,0,0,0,3.9-2.742,32.127,32.127,0,0,0,3.269-3.093,33.554,33.554,0,0,0,2.72-3.357,36.56,36.56,0,0,0,2.216-3.554,39.777,39.777,0,0,0,1.733-3.62c.514-1.216.969-2.437,1.36-3.642a50.484,50.484,0,0,0,1.711-6.91,55.188,55.188,0,0,0,.68-5.836,44.085,44.085,0,0,0,.066-5.528,4.62,4.62,0,0,1,1.251,2.018,16.976,16.976,0,0,1,.9,3.247,7.427,7.427,0,0,0,1.1.834,9.737,9.737,0,0,0,2.128.987,10.949,10.949,0,0,0,3.137.548,14.213,14.213,0,0,0,4.168-.527,16.982,16.982,0,0,0,4.059-2.216,16.676,16.676,0,0,0,3.137-3.027,17.274,17.274,0,0,0,3.357-7.437,16.142,16.142,0,0,0,.241-3.927,13.875,13.875,0,0,0-.724-3.686,11.874,11.874,0,0,0-1.711-3.247,10.776,10.776,0,0,0-2.7-2.545,13.267,13.267,0,0,0-3.313-.965,7.307,7.307,0,0,0-2.589.066,6.323,6.323,0,0,0-2.062.856,8.484,8.484,0,0,0-1.623,1.382,11.217,11.217,0,0,0-1.294,1.711,17.584,17.584,0,0,0-.965,1.777c-.533,1.122-.841,2.036-1.119,2.655l-.022.044a12.2,12.2,0,0,1-.768,1.448,14.6,14.6,0,0,1-2.369,2.984l-1.36,1.316-.461-1.843c-.155-.618-.392-2.013-.68-4.19s-.6-5.045-.834-8.2-.4-6.629-.351-10.048c.024-1.709.1-3.4.241-5.046a45.541,45.541,0,0,1,.636-4.717,28.005,28.005,0,0,0,.483-3.817,20.47,20.47,0,0,0-.066-3.137,15.87,15.87,0,0,0-.461-2.523,12.749,12.749,0,0,0-.68-1.931,9.993,9.993,0,0,0-1.185-2,7.29,7.29,0,0,1-1.952,2.26,9.213,9.213,0,0,1-1.579,1.009,11.8,11.8,0,0,1-2.062.768l-1.667.461.307-1.711a25.574,25.574,0,0,0,.483-4.673,16.314,16.314,0,0,0-.241-2.764,17.118,17.118,0,0,0-.856-3.071,19.274,19.274,0,0,0-1.492-3.049,27.186,27.186,0,0,0-2.347-3.313,40.591,40.591,0,0,0-3.378-3.6,59.192,59.192,0,0,0-4.5-3.861ZM79.24,356.31a2.17,2.17,0,0,0-.395.066,4.22,4.22,0,0,0-1.185.5,2.326,2.326,0,0,0-.68.614,1.716,1.716,0,0,0-.307,1.25.74.74,0,0,0,.373.592c.154.07.429.119,1.031-.263a4.8,4.8,0,0,0,1.579-1.514,1.887,1.887,0,0,0,.132-.987.339.339,0,0,0-.263-.241.989.989,0,0,0-.285-.022Zm87.993,52.783c-3.822.333-7.613.514-11.32.548s-7.328-.079-10.837-.307a26.613,26.613,0,0,1,.856,4.783,25.75,25.75,0,0,1,.066,3.247,23.475,23.475,0,0,1-.417,3.62c.82.378,1.764.769,2.808,1.141a31.363,31.363,0,0,0,3.422,1.009,27.661,27.661,0,0,0,3.751.614,23.562,23.562,0,0,0,4.037.022,20.347,20.347,0,0,0,8.446-2.567,7.194,7.194,0,0,1-.9-1.8,10.583,10.583,0,0,1-.483-2.018,19.558,19.558,0,0,1-.044-4.124,31.537,31.537,0,0,1,.614-4.168Z" fill="#fccb8d"/>
      <path id="path4166" d="M176.77,318.08a11.865,11.865,0,0,0-1.755.132,10.567,10.567,0,0,0-3.137.965,10.173,10.173,0,0,0-2.611,1.843,12.18,12.18,0,0,0-2.084,2.655,16.713,16.713,0,0,0-1.47,3.444,24.615,24.615,0,0,0-.746,3.335,27.263,27.263,0,0,0-.307,3.247,31.753,31.753,0,0,0,.373,5.923,35.679,35.679,0,0,0,1.053,4.651c.378,1.276.74,2.252.965,2.808a28.279,28.279,0,0,1,3.137-.044,29.324,29.324,0,0,1,4.1.461,28.423,28.423,0,0,1,4.695,1.272,28.106,28.106,0,0,1,5,2.435,28.692,28.692,0,0,1,2.523,1.733,30.269,30.269,0,0,1,2.479,2.15,40.339,40.339,0,0,0,2.918-3.62c.578-.807,1.176-1.7,1.755-2.676a32.008,32.008,0,0,0,1.645-3.137,24.474,24.474,0,0,0,1.6-4.739,19.362,19.362,0,0,0,.395-2.5,17,17,0,0,0,.044-2.567,15.6,15.6,0,0,0-.373-2.567,15.121,15.121,0,0,0-.856-2.589,16.1,16.1,0,0,0-1.4-2.567,19.8,19.8,0,0,0-2.062-2.567c-.026-.022-.04-.044-.066-.066a44.254,44.254,0,0,0-4.475-3.378,30.357,30.357,0,0,0-4.146-2.281,21.323,21.323,0,0,0-3.8-1.338,14.873,14.873,0,0,0-3.4-.417Z" fill="#fff"/>
      <path id="path4174" d="M121.51,321.92a16.863,16.863,0,0,0-2.962.285,18.013,18.013,0,0,0-3.2.9,21.23,21.23,0,0,0-3.422,1.667,27.281,27.281,0,0,0-3.576,2.611,14.285,14.285,0,0,0-1.865,1.909,11.219,11.219,0,0,0-1.272,1.974,10.537,10.537,0,0,0-.79,2.04,11.39,11.39,0,0,0-.351,2.084,14.632,14.632,0,0,0,.351,4.278,21.911,21.911,0,0,0,1.4,4.146,31.554,31.554,0,0,0,1.6,3.093c.562.956,1.145,1.839,1.689,2.611a36.856,36.856,0,0,0,2.545,3.225,34.184,34.184,0,0,1,3.269-1.689,32.3,32.3,0,0,1,3.8-1.426,31.742,31.742,0,0,1,9.192-1.4,33.249,33.249,0,0,1,4.651.307,37.624,37.624,0,0,1,5.024,1.053c.134-1.985.165-3.821.11-5.528a45.133,45.133,0,0,0-.395-4.739,36.6,36.6,0,0,0-.768-3.949,30.947,30.947,0,0,0-1.009-3.247,23.939,23.939,0,0,0-2.3-4.673,17.513,17.513,0,0,0-1.667-2.172,10.575,10.575,0,0,0-2.347-1.558,16.785,16.785,0,0,0-2.3-.943,16.974,16.974,0,0,0-2.9-.68,17.248,17.248,0,0,0-2.5-.176Z" fill="#fff"/>
      <path id="path4180" d="M174.84,128.09A6.384,6.384,0,0,0,170.371,130a6.57,6.57,0,0,0-1.344,6.969,6.565,6.565,0,0,0,1.344,2.063,6.241,6.241,0,0,0,2,1.375,6.242,6.242,0,0,0,6.938-1.375,6.681,6.681,0,0,0,1.313-7A6.355,6.355,0,0,0,179.309,130a6.384,6.384,0,0,0-4.469-1.906Zm-51.688,3.219a5.823,5.823,0,0,0-2.344.469,6.04,6.04,0,0,0-1.906,1.344,6.12,6.12,0,0,0-1.281,1.938,6.251,6.251,0,0,0,0,4.75,6.377,6.377,0,0,0,3.187,3.25,5.743,5.743,0,0,0,4.688,0,6.377,6.377,0,0,0,3.187-3.25,6.251,6.251,0,0,0,0-4.75,6.132,6.132,0,0,0-1.281-1.937,6.035,6.035,0,0,0-1.906-1.344,5.815,5.815,0,0,0-2.344-.469Z" transform="translate(0 200)" fill="#534528"/>
      <path id="path4224" d="M178.81,129.28a6.838,6.838,0,0,1,.5,2.563,6.627,6.627,0,0,1-1.875,4.625A6.366,6.366,0,0,1,175.4,137.9a6.3,6.3,0,0,1-5.062,0,6.462,6.462,0,0,1-1.469-.906,6.389,6.389,0,0,0,3.375,3.469,6.3,6.3,0,0,0,2.531.531,6.435,6.435,0,0,0,2.563-.531,6.365,6.365,0,0,0,2.031-1.437,6.554,6.554,0,0,0,1.344-2.094,6.686,6.686,0,0,0,.5-2.531,6.838,6.838,0,0,0-.5-2.562,6.545,6.545,0,0,0-1.344-2.094,6.018,6.018,0,0,0-.562-.469ZM119.4,132.061a6.369,6.369,0,0,0-.594.5,6.84,6.84,0,0,0,0,9.312,6.5,6.5,0,0,0,2.063,1.438,6.3,6.3,0,0,0,5.062,0,6.389,6.389,0,0,0,3.375-3.469,6.146,6.146,0,0,1-1.437.875,6.451,6.451,0,0,1-2.562.531,6.384,6.384,0,0,1-4.562-1.937,6.779,6.779,0,0,1-1.375-2.125,7.069,7.069,0,0,1,0-5.062c.007-.016.025-.046.031-.062Z" transform="translate(0 200)" fill="#766030"/>
      <path id="path3024" d="M143.32,208.58l25.633-.379-.884,4.117c-5.653.915-15.831.329-23.612-2.121Z" transform="translate(0 200)" fill="#dd9e58"/>
      <path id="path3026" d="M146.15,396.16c3.833,1.129,7.955,1.7,11.793.559A6.636,6.636,0,0,1,146.15,396.16Z" fill="#dd9e58"/>
      <path id="path3028" d="M141.55,161.99c3.612,7.285,9.311,8.154,15.279,7.324C147.377,176.33,140.477,168.12,141.55,161.99Z" transform="translate(0 200)" fill="#dd9e58"/>
      <path id="path3030" d="M64.65,143.93c-6.526,16.558,9.559,23.788,18.056,22.855l.379,2.652c-19.131-2.43-24.554-11.27-18.435-25.5Z" transform="translate(0 200)" fill="#dd9e58"/>
      <path id="path3032" d="M236.63,344.06c6.526,16.558-11.2,28.334-20.329,21.339l.505,2.778c16.1,5.639,25.943-9.892,19.824-24.117Z" fill="#dd9e58"/>
      <path id="path3034" d="M85.536,143.04c.477-3.867,1.9-5.359,1.429-11.607l4.285-.18c-3.519-8.672,3.966-20.569,4.107-27.143l10.357,7.857c-1.87-2.99-3.51-11.82-.71-13.577,19.21,13.367,34.32,4.127,46.43,16.607.028-3.628,2.962-5.962,3.128-19.4,5.533-1.79,10.175,5.334,15.087,9.76,1.407-2.061,2.9-5.17,4.643-11.25,7.256-.549,11.594,3.129,16.2,6.921,1.4-.791,4.884-2.026,5.262-10.018,8.38,6.619,9.092,14.12,7.826,21.847,3.921.735,6.631-.9,7.857-2.679,3.1,3.2,2.067,14.086,3.036,21.25-.18-7.734,2.339-14.343-1.429-23.571l-5.54,1.78c-1.673-6.817,1-11.381-14.821-25.536l-2.5,13.75c-5.77-4.576-12.53-5.852-19.286-7.143l-2.14,9.469c-4.727-3.078-8.351-7.5-15.893-7.143l-2.5,17.679c-12.295-6.872-30.409-10.4-45.714-15.536-2.248,1.866-2.587,6.6-2.857,11.429l-8.4-7.86-6.071,28.393L83.929,124.1Z" transform="translate(0 200)" fill="#dd9e58"/>
      <path id="path3036" d="M71.7,151.52c4.3-1.135,4.85,1.562,7.232,2.768l-3.661,3.75C75.908,154.977,75.57,153.195,71.7,151.52Z" transform="translate(0 200)" fill="#dd9e58"/>
      <path id="path3038" d="M227.88,349.68c-4.882-.583-6.449,3.751-6.853,5.861,1.316,3.065,3,2.941,4.987,2.677-4.176-2.051-1-6.043,1.867-8.538Z" fill="#dd9e58"/>
      <path id="path4158" d="M184.53,102.47c-.175,0-.355.013-.531.031a5.451,5.451,0,0,0-1.406.344,7.576,7.576,0,0,0-2.344,1.5,14.617,14.617,0,0,0-2.406,2.906,15.167,15.167,0,0,1,3.75-.375,15.477,15.477,0,0,1,2.719.344,18.217,18.217,0,0,1,3,.906,22.375,22.375,0,0,1,3.25,1.625,27.526,27.526,0,0,1,3.406,2.438,16.4,16.4,0,0,0-.906-2.437,17.646,17.646,0,0,0-1.312-2.344,16.039,16.039,0,0,0-1.687-2.156,10.536,10.536,0,0,0-1.937-1.594,7.958,7.958,0,0,0-1.781-.875,5.732,5.732,0,0,0-1.812-.312Zm-73.344,5.75a8.214,8.214,0,0,0-1.156.063,7.811,7.811,0,0,0-1.562.375,6.954,6.954,0,0,0-1.5.688,7.554,7.554,0,0,0-1.375,1.125,10.488,10.488,0,0,0-1.312,1.625,15.9,15.9,0,0,0-1.625,3.438,29.235,29.235,0,0,0-1.219,4.906,27.1,27.1,0,0,1,3.625-3.844,23.453,23.453,0,0,1,2.813-2.125,22,22,0,0,1,3.406-1.75,20.268,20.268,0,0,1,3.906-1.156,20.861,20.861,0,0,1,4.469-.375,24.6,24.6,0,0,0-4.187-2.062,15.38,15.38,0,0,0-2.125-.625,11.529,11.529,0,0,0-2.156-.281Z" transform="translate(0 200)" fill="#766030"/>
      <path id="path3004" d="M100.95,121.46s9.66-10.543,20.645-9.407C117.112,108.9,103.728,111.106,100.95,121.46Z" transform="translate(0 200)" fill="#534528"/>
      <path id="path4142" d="M127.96,235.98a25.059,25.059,0,0,1-2.194,2.128,62.891,62.891,0,0,1-6.274,4.629,113.616,113.616,0,0,1-10.245,5.879,60.025,60.025,0,0,0-5.4,3.115,42.919,42.919,0,0,0-4.059,2.984,30.987,30.987,0,0,0-2.918,2.742,22.367,22.367,0,0,0-1.952,2.435A13.756,13.756,0,0,0,93.1,263.4a5.207,5.207,0,0,0-.285,1.141L92.6,268.6,90.753,265s-1.047-2.23-1.865-4.059a8.663,8.663,0,0,0-1.47,1.689,2.943,2.943,0,0,0-.5,1.47,9.006,9.006,0,0,0,.329,2.216c.205.878.47,1.9.68,3.137l.439,2.479-2.106-1.382a10.355,10.355,0,0,0-2.194-1.1,10.989,10.989,0,0,0-2.128-.5,15.624,15.624,0,0,0-3.642-.066c.954,1.141,1.973,2.4,3.225,3.707l1.777,1.865H80.728a13.636,13.636,0,0,0-3.773.614,27.542,27.542,0,0,0-3.2,1.185c.966.606,1.8,1.168,4.322,2.523l1.909,1.009-1.974.943a28.674,28.674,0,0,0-4.848,2.918,26.751,26.751,0,0,0-7.7,8.995c1.452-.527,2.772-1,5.923-2.238l3.2-1.25L72.7,292.031a21.708,21.708,0,0,0-1.623,2.962,29.015,29.015,0,0,0-1.251,3.335,43.892,43.892,0,0,0-1.579,7.459,69.483,69.483,0,0,0-.5,7.985c-.031,2.686.057,5.366.241,7.92.308,4.275.822,8.129,1.316,11.188s.969,5.322,1.207,6.384c.149-.017.291-.034.439-.044a8.43,8.43,0,0,1,1.711.066,9.937,9.937,0,0,1,3.115.987,14.079,14.079,0,0,1,2.632,1.733,21.142,21.142,0,0,1,3.247,3.422h1.514a6.061,6.061,0,0,1,.044.614c.031.4.078.952.132,1.6.007.085.01.2.022.307l.044.066-.022.022c.01.093.016.184.022.263a27.754,27.754,0,0,0,.57-3.444c.129-1.228.19-2.523.219-3.839a75.664,75.664,0,0,0-.263-7.876c-.444-5.3-1.175-9.443-1.229-9.74-.424-.841-.785-1.561-1.053-2.216a6.787,6.787,0,0,1-.5-1.8c.816.843,1.846,1.665,2.786,2.611a11.829,11.829,0,0,1,1.294,1.536,7.407,7.407,0,0,1,.965,1.821c.021-.813-.023-1.569.066-2.435a29.2,29.2,0,0,1,.9-4.892,20.036,20.036,0,0,1,.79-2.3,14.655,14.655,0,0,1,1.075-2.084,18.134,18.134,0,0,0,1.711-4.344,55.422,55.422,0,0,0,1.229-5.528c.623-3.617.9-6.669.9-6.669a7.147,7.147,0,0,1,2.106,1.47,12.709,12.709,0,0,1,1.426,1.8c.451.653.931,1.363,1.536,2.084a13.726,13.726,0,0,0,2.347,2.216,14.554,14.554,0,0,1,.022-4.344,9.512,9.512,0,0,1,1.053-3.071,7.85,7.85,0,0,1,1.821-2.194,11.458,11.458,0,0,1-2.04-2.545,4.245,4.245,0,0,1,1.974.68c.779.429,1.678,1.016,2.655,1.667s2.038,1.371,3.159,2.018a20.352,20.352,0,0,0,3.51,1.645q1.771.847,3.729,1.579c1.306.488,2.687.936,4.08,1.316s2.814.7,4.256.943a38.019,38.019,0,0,0,4.344.483,51.379,51.379,0,0,1,7.459.9,36.224,36.224,0,0,1,5.857,1.667,32.045,32.045,0,0,1,4.629,2.216,43.818,43.818,0,0,1,3.861,2.545,21.742,21.742,0,0,0,1.141-3.9,18.2,18.2,0,0,0,.307-3.51,16.5,16.5,0,0,0-.307-3.071,16.152,16.152,0,0,0-.746-2.633,17.592,17.592,0,0,0-2.128-3.971,12.5,12.5,0,0,0-1.141-1.4,6.6,6.6,0,0,1,1.733.241,7.164,7.164,0,0,1,1.843.834,21.717,21.717,0,0,1,2.984-.417,15.656,15.656,0,0,1,2.654.044,13.029,13.029,0,0,1,2.391.461,12.6,12.6,0,0,1,2.15.878,20.808,20.808,0,0,1,3.664,2.5c1.206.992,2.425,2.119,3.729,3.335a32.957,32.957,0,0,0,.9-3.8,14.568,14.568,0,0,0,.219-2.918,14.4,14.4,0,0,0-.373-2.655c-.2-.905-.479-1.859-.812-2.984a4.187,4.187,0,0,1,1.075.658,5.139,5.139,0,0,1,.834.9,6.426,6.426,0,0,1,.768,1.4c.087.217.17.458.241.7a17.8,17.8,0,0,1,3.049-.176,20.557,20.557,0,0,1,2.984.285,26.05,26.05,0,0,1,5.572,1.645,25.6,25.6,0,0,1,3.971,2.062,23.454,23.454,0,0,1,2.984,2.26,8.415,8.415,0,0,0,.878-2.062,10.024,10.024,0,0,0,.351-2.567,22.6,22.6,0,0,0-.329-3.9,42.492,42.492,0,0,0-1.009-4.475l-.834-2.984,2.523,1.8a67.328,67.328,0,0,1,5.792,4.585,44.928,44.928,0,0,1,4.278,4.322,30.822,30.822,0,0,1,2.962,4.037,22.845,22.845,0,0,1,1.843,3.773,18.441,18.441,0,0,1,.834,2.83,17.111,17.111,0,0,1,.307,2.567,22.992,22.992,0,0,1-.241,4.431,6.572,6.572,0,0,0,1.865-1.25,4.647,4.647,0,0,0,.943-1.316,4.5,4.5,0,0,0,.417-1.338,2.514,2.514,0,0,0,.022-.548,6.75,6.75,0,0,1,2.479,1.316,11.694,11.694,0,0,1,2.084,2.9,14.711,14.711,0,0,1,.812,2.26,18.453,18.453,0,0,1,.5,2.874,22.852,22.852,0,0,1,.066,3.466,29.8,29.8,0,0,1-.5,4.124,42.576,42.576,0,0,0-.592,4.475c-.132,1.579-.2,3.224-.219,4.892-.044,3.336.1,6.761.329,9.872s.529,5.935.812,8.073c.116.879.163.99.263,1.623a21.533,21.533,0,0,0,1.185-1.909l.022-.044v-.022c.162-.357.562-1.456,1.163-2.72a19.939,19.939,0,0,1,1.1-2.018,13.162,13.162,0,0,1,1.536-2.018,9.581,9.581,0,0,1,1.645-1.4,8.993,8.993,0,0,1,4.5-1.558,11.064,11.064,0,0,1,2.83.154,24.981,24.981,0,0,0,1.075-3.269c.371-1.378.743-3.014,1.1-4.783.81-4.041,1.564-8.894,2.216-13.58s1.206-9.207,1.6-12.636c.2-1.715.345-3.164.461-4.212s.176-1.6.219-1.887a10.811,10.811,0,0,1,.658-2.062c.33-.877.751-1.91,1.163-2.918.6-1.46.908-2.157,1.185-2.808a1.649,1.649,0,0,0-.527-.176,5.8,5.8,0,0,0-1.733-.022,7.492,7.492,0,0,0-2.281.724l-2,.965.439-2.172a13.925,13.925,0,0,0,.088-3.071c-.065-1.275-.209-2.711-.395-4.015-.061-.428-.068-.392-.132-.79-.388.943-.833,1.97-1.36,2.984a20.736,20.736,0,0,1-1.821,2.918l-1.207,1.6-.7-1.865a57.421,57.421,0,0,0-6.252-12.11,57.438,57.438,0,0,0-3.686-4.87c-1.26-1.495-2.541-2.864-3.817-4.1s-2.559-2.35-3.8-3.335-2.423-1.832-3.554-2.567a35.047,35.047,0,0,0-3.159-1.843,19.642,19.642,0,0,0-2.545-1.1l-1.075-.373.395-1.053a8.524,8.524,0,0,0,.439-1.733,12.231,12.231,0,0,0,.132-1.909,17.061,17.061,0,0,0-.527-3.949,15.134,15.134,0,0,0-.878-2.523,14.472,14.472,0,0,0-1.031-1.909,9.874,9.874,0,0,1-1.119.856,25.341,25.341,0,0,1-3.708,1.909,80.615,80.615,0,0,1-8.885,3.159l-2.26.658.921-2.15a13.293,13.293,0,0,0,.965-3.642,14.222,14.222,0,0,0,0-3.532,9.569,9.569,0,0,0-.527-2.172,7.842,7.842,0,0,0-.812-1.558c-.277.227-.553.459-.921.724-1.02.735-2.392,1.606-3.971,2.545s-3.361,1.919-5.221,2.852a60.925,60.925,0,0,1-5.66,2.523,3.8,3.8,0,0,1-.307-1.623,6.353,6.353,0,0,1,.307-1.579,26.109,26.109,0,0,0,1.075-4.168,15.457,15.457,0,0,0,.176-2.633,34.562,34.562,0,0,1-5.616,1.426,46.891,46.891,0,0,1-4.87.592,56.533,56.533,0,0,1-6.186.066h-.066a42.817,42.817,0,0,0-7.547-.132,47.541,47.541,0,0,0-6.976.987,46.125,46.125,0,0,0-6.033,1.777,33.64,33.64,0,0,0-4.673,2.106,3.034,3.034,0,0,1-.746-1.6,4.452,4.452,0,0,1,.2-1.623c.152-.574.363-1.195.527-1.93a10.619,10.619,0,0,0,.263-2.589Z" fill="#766030"/>
      <path id="path3006" d="M176.46,108.01s9.6-3.157,18.246,5.808C194.58,109.652,181.321,102.328,176.46,108.01Z" transform="translate(0 200)" fill="#534528"/>
      <path id="path3008" d="M67.5,124.29S68.929,99.469,80.179,87.5a23.935,23.935,0,0,0-8.75,1.25s7.143-8.393,14.107-7.5A26.641,26.641,0,0,0,78.75,77.5s3.75-2.5,9.643.357a25.161,25.161,0,0,1-4.643-5.536s4.286,0,6.786,3.036a39.318,39.318,0,0,0-1.071-7.321s2.679,2.857,5,3.75c.714-5.357,0-13.393,15.536-20,12.321-6.429,13.75-9.464,13.75-9.464l-2.857,9.286s9.821-9.643,27.679-8.571c11.61.714,16.79-1.786,16.79-1.786s.893,7.857-2.321,11.071c7.857-.893,15.536-4.821,17.857-8.393-1.25,7.857,1.115,9.082-2.278,11.939,8.929-2.679,18.885-5.153,20.135-8.189,1.62,3.232,1.194,7.078-1.25,11.786,6.071,1.786,23.393,8.214,30.714,32.321a7.394,7.394,0,0,0,5-4.286s.536,5.893-.536,7.857c3.929-2.321,5.893-2.321,5.893-2.321s-5.179,13.393-5.357,42.679c3.036-13.75,5.357-31.429,5.536-36.786,1.25-4.464,3.036-9.107,3.036-9.107L236.25,90l-2.32-9.464L230,87.679s-6.25-20.536-27.5-30.714c.714-5.893-2.857-13.929-2.857-13.929l-13.571,6.429c1.693-2.661-1.257-14.581-1.429-12.857-.1.957-15,8.571-15,8.571l1.071-10c-11.067,4.2-29.271,1.7-41.964,6.429v-7.5c-6.818,5.682-35.6,18.867-37.143,30.357l-2.5-5.357a11.056,11.056,0,0,0-2.5,10.179L75.537,67.32l4.643,5.715-8.572,3.393L77.5,79.82C70,83.7,66.916,89.229,63.037,94.463l7.857-2.321s-8.036,17.679-3.393,32.143Z" transform="translate(0 200)" fill="#534528"/>
      <path id="path3010" d="M107.32,261.43S124.458,229.24,136.784,225c.406-2.233-.323-6.158,7.67-5a8.666,8.666,0,0,0,.227-4.948s-9.325,2.269-9.861,6.912c-3.929,1.786-23.214,15.179-27.5,39.464Z" transform="translate(0 200)" fill="#bfa60e"/>
      <path id="path3012" d="M205.7,465.57s-14.307-36.012-29.467-41.656c-.094-2.268-.978-4.287-7.539-5.378-.533-2.857.457-4.174.457-4.174s9.555,2.27,9.446,6.942c4.655,1.3,24.69,16.717,27.1,44.266Z" fill="#bfa60e"/>
      <path id="path3014" d="M142.39,264.87s16.5-1.3,19.843.666c-4.043.262-2.01,4.976-2.01,4.976-8.476-3.541-12.451-3.749-17.833-5.642Z" transform="translate(0 200)" fill="#bfa60e"/>
      <path id="path2997" d="M129.54,230.26l-1.514,2.457a18.607,18.607,0,0,1-3.664,3.729c-2.905,2.462-7.9,6-16.124,10.223-8.414,4.32-12.813,8.659-15.115,11.978a16.52,16.52,0,0,0-1.579,2.83,30.313,30.313,0,0,1-1.272-2.764l-.527-1.382-1.163.878c-2.694,2.044-3.793,3.9-3.861,5.814a12.838,12.838,0,0,0,.548,3.6,18.021,18.021,0,0,0-9.455-.746l-1.777.395,1.163,1.382s1.859,2.148,3.378,3.883a28.854,28.854,0,0,0-7.744,2.611L69.189,276l1.558,1.031s2.406,1.429,4.607,2.7a29.878,29.878,0,0,0-13.119,14.545l-.724,2.15,2.128-.746s3.18-1.2,5.77-2.172c-3.953,8.057-4.271,18.992-3.6,28.344A127.443,127.443,0,0,0,68.4,339.774a11.668,11.668,0,0,0-2.984,1.623c-5.1,3.78-6.3,11.192-3.422,17.528,2.793,6.155,9.537,11.331,20.2,11.474,1.089,8.329,4.051,14.35,8.029,18.867,5.258,5.97,12.186,9.309,18.757,12.373,6.927,3.229,19.2,6.352,33.74,7.525a22.294,22.294,0,0,1,1.009,5.2A20.33,20.33,0,0,0,137.109,417a5.943,5.943,0,0,0-2.83,3.927c-2.255.6-4.859,2.283-7.7,4.739a60.6,60.6,0,0,0-9.565,10.75c-6.135,8.69-11.1,20.014-10.245,31.349,2.121-11.348,6.5-22.127,12.022-30.1a58.668,58.668,0,0,1,9.236-10.355,22.113,22.113,0,0,1,6.516-4.168c2.105,2.967,3.478,3.867,5.726,3.51-2.869-2.232-3.769-3.939-3.817-5.024s.646-1.97,1.887-2.808a18.414,18.414,0,0,1,5.506-2.194,21.609,21.609,0,0,1-.307,3.335c-.041,1.138-2.286.633-2.611,1.031a34.7,34.7,0,0,0,10.377,4.278c6.081,1.411,14.128,1.356,21.346-4.519a5.675,5.675,0,0,1-2.72-.7,7.916,7.916,0,0,1-1.119-3.8,22.88,22.88,0,0,1,6.252,1.536c1.439.664,2.235,1.441,2.3,2.281s-.6,2.422-3.357,4.651c1.288.946,4.174-.631,5.09-2.523.236.116.466.224.768.395A30.082,30.082,0,0,1,183,424.674a46.319,46.319,0,0,1,8.643,8.622c6.817,8.5,11.98,24.214,15.093,39.115-.717-19.231-6.959-32.208-13.36-40.453a48.568,48.568,0,0,0-9.06-9.038,32.234,32.234,0,0,0-3.357-2.238,14.923,14.923,0,0,0-1.4-.724c0-.022,0-.044,0-.066-.164-2.01-1.824-3.271-3.576-4.08a24.832,24.832,0,0,0-7.2-1.8c.009-.19.007-.381.022-.57a29.658,29.658,0,0,1,.746-4.563,122.418,122.418,0,0,0,18.274-3.269c15.941-4.178,23.335-15.447,26.611-25.536a54.655,54.655,0,0,0,2.325-11.166,13.957,13.957,0,0,0,11.32,1.448l.044-.022h.044c13.725-5.172,16.434-23.435,6.1-30.1l-.066-.044-.088-.044c-.352-.151-.691-.275-1.031-.395a46.808,46.808,0,0,0,2.172-8.2c.824-4.114,1.582-8.979,2.238-13.689s1.2-9.262,1.6-12.7c.2-1.72.367-3.163.483-4.212s.2-1.8.2-1.8c0,.025.231-.758.548-1.6s.733-1.876,1.141-2.874c.816-1.995,1.6-3.861,1.6-3.861l.373-.856-.79-.5a6.628,6.628,0,0,0-2.216-.768,9.051,9.051,0,0,0-3.708.395,33.989,33.989,0,0,0-.351-6.121,9.5,9.5,0,0,0-2.984-5.024,41.7,41.7,0,0,1-3.225,7.459,60.078,60.078,0,0,0-13.4-19.92,42.2,42.2,0,0,0-12.943-8.951,16.069,16.069,0,0,0-.154-7.876,14.147,14.147,0,0,0-3.225-6.559l-1.229-1.185-.548,1.6a4.506,4.506,0,0,1-1.36,1.25,23.591,23.591,0,0,1-3.378,1.755,71.148,71.148,0,0,1-6.757,2.391,16.492,16.492,0,0,0,.548-6.186c-.334-2.564-1.177-4.726-2.654-5.967l-1.141-.965-.548,1.272a2.4,2.4,0,0,1-.263.285c-.249.219-.647.515-1.119.856-.944.68-2.261,1.545-3.8,2.457a78.72,78.72,0,0,1-7.349,3.8,18.864,18.864,0,0,0,.834-3.6,30.619,30.619,0,0,0,.307-4.453l-.044-1.579-1.47.592a44.864,44.864,0,0,1-17.287,2.413c-.022,0-.044,0-.066,0a47.172,47.172,0,0,0-23.627,3.708,16.761,16.761,0,0,0,.548-7.415Zm-1.579,5.726c.088,4.018-2.1,5.458-.241,7.744a45.258,45.258,0,0,1,25.229-4.739h.066c9.135.381,14.776-1.416,16.673-2.084a15.457,15.457,0,0,1-.176,2.633c-.5,3.54-2.03,5.1-1.075,7.371a73.211,73.211,0,0,0,10.881-5.375c1.579-.938,2.951-1.81,3.971-2.545.368-.265.644-.5.921-.724A8.663,8.663,0,0,1,185.548,242a13.967,13.967,0,0,1-.965,7.174l-.921,2.15,2.26-.658a80.594,80.594,0,0,0,8.885-3.159,25.338,25.338,0,0,0,3.708-1.909,9.868,9.868,0,0,0,1.119-.856,14.862,14.862,0,0,1,1.909,4.431,13.481,13.481,0,0,1-.044,7.591l-.395,1.053,1.075.373c2.9.979,7.948,3.888,13.053,8.841a57.7,57.7,0,0,1,13.755,21.082l.7,1.865,1.207-1.6a26.932,26.932,0,0,0,3.181-5.9c.063.4.071.362.132.79a27.742,27.742,0,0,1,.307,7.086l-.439,2.172,2-.965a6.556,6.556,0,0,1,4.015-.7,1.647,1.647,0,0,1,.527.176c-.277.651-.588,1.348-1.185,2.808-.412,1.008-.832,2.041-1.163,2.918a10.81,10.81,0,0,0-.658,2.062c-.044.285-.1.839-.219,1.887s-.263,2.5-.461,4.212c-.4,3.43-.949,7.951-1.6,12.636s-1.406,9.538-2.216,13.58a46.769,46.769,0,0,1-2.172,8.051,9.505,9.505,0,0,0-8.973,2.808,15.747,15.747,0,0,0-2.633,4.037c-.6,1.264-1,2.363-1.163,2.72v.022l-.022.044a21.574,21.574,0,0,1-1.185,1.909c-.1-.634-.147-.744-.263-1.623-.283-2.139-.581-4.962-.812-8.073-.462-6.223-.589-13.667.483-19.24,1.144-5.95.314-10.076-.878-12.724-1.636-2.846-2.392-3.448-4.563-4.212a3.905,3.905,0,0,1-.439,1.887,5.462,5.462,0,0,1-2.808,2.567,18.769,18.769,0,0,0-.9-9.828c-1.827-4.836-6.026-10.429-14.874-16.717l-2.523-1.8.834,2.984a31.053,31.053,0,0,1,1.338,8.38,9.008,9.008,0,0,1-1.229,4.629,24.636,24.636,0,0,0-6.954-4.322,22.122,22.122,0,0,0-11.6-1.755c-.072-.244-.155-.485-.241-.7a5.815,5.815,0,0,0-1.6-2.3,4.187,4.187,0,0,0-1.075-.658c1.33,4.5,1.785,6.42.066,12.351-2.61-2.431-4.862-4.534-7.393-5.836-2.762-1.42-5.931-1.844-10.179-.965a6.64,6.64,0,0,0-3.576-1.075,16.167,16.167,0,0,1,3.269,5.375,17.8,17.8,0,0,1-.395,13.119c-4.831-3.517-10.567-6.745-21.806-7.327a44.652,44.652,0,0,1-16.41-4.322c-4.857-1.675-9.176-6.08-11.3-6.011a11.459,11.459,0,0,0,2.04,2.545,7.85,7.85,0,0,0-1.821,2.194,11.846,11.846,0,0,0-1.075,7.415c-4.035-3.019-3.838-5.9-7.415-7.569,0,0-.277,3.052-.9,6.669s-1.673,7.838-2.94,9.872a22.372,22.372,0,0,0-2.764,9.28c-.089.866-.044,1.622-.066,2.435-.939-2.688-3.413-4.281-5.046-5.967a13.039,13.039,0,0,0,1.558,4.015c.053.3.785,4.445,1.229,9.74.421,5.023.473,10.915-.527,15.159-.006-.079-.012-.17-.022-.263l.022-.022s-.041-.06-.044-.066c-.012-.108-.015-.222-.022-.307-.054-.649-.1-1.2-.132-1.6a6.07,6.07,0,0,0-.044-.614H81.65A21.139,21.139,0,0,0,78.4,342.01a11.628,11.628,0,0,0-5.748-2.72,8.425,8.425,0,0,0-1.711-.066c-.147.01-.29.026-.439.044A125.98,125.98,0,0,1,67.983,321.7c-.735-10.216-.108-22.318,4.717-29.66l1.887-2.874-3.2,1.25c-3.151,1.236-4.471,1.711-5.923,2.238a27.174,27.174,0,0,1,12.548-11.912l1.974-.943-1.909-1.009c-2.525-1.355-3.356-1.917-4.322-2.523a18.536,18.536,0,0,1,6.976-1.8h2.567L81.518,272.6c-1.252-1.311-2.271-2.567-3.225-3.707a12.167,12.167,0,0,1,7.964,1.667l2.106,1.382-.439-2.479c-.419-2.47-1.052-4.139-1.009-5.353.034-.956.646-1.927,1.974-3.159.818,1.828,1.865,4.059,1.865,4.059l1.843,3.6.219-4.059a5.208,5.208,0,0,1,.285-1.141,13.763,13.763,0,0,1,1.821-3.51c2.063-2.975,6.163-7.086,14.325-11.276a87.062,87.062,0,0,0,16.519-10.508,25.053,25.053,0,0,0,2.194-2.128ZM103.433,309.61c-2.469,2.256-6.14,9.7-2.589,15.62a25.394,25.394,0,0,1,5.638-7,18.751,18.751,0,0,1,17.09-4.41c-1.782-5.961-8.679-8.516-13.8-7.7a9.739,9.739,0,0,0-6.121,3.247l-.68-2.347c-1.269-4.485-.586-7.135.285-8.687a5.075,5.075,0,0,1,1.579-1.8,36.885,36.885,0,0,0,6.647,3.971,46.64,46.64,0,0,0,17.243,4.541c11.768.61,16.793,3.962,21.806,7.744l1.1.834.57-1.25a20.318,20.318,0,0,0,.9-16.1c-.2-.531-.433-1.023-.658-1.492,3.534-.648,5.884-.26,8.1.878,2.512,1.292,4.884,3.659,8.183,6.691l1.229,1.141.548-1.579a22.848,22.848,0,0,0,1.623-8.863,20.163,20.163,0,0,1,10.4,1.623,22.7,22.7,0,0,1,7.327,4.695l.834.921.812-.943a10.647,10.647,0,0,0,2.26-7,27.854,27.854,0,0,0-.724-5.923h0c6.818,5.307,10.258,9.964,11.715,13.821a18.4,18.4,0,0,1,.614,10.508l-.307,1.711,1.667-.461a8.7,8.7,0,0,0,5.594-4.037,9.989,9.989,0,0,1,1.185,2c1,2.227,1.8,5.834.724,11.408-1.144,5.951-1,13.49-.527,19.81.234,3.16.546,6.028.834,8.2s.525,3.572.68,4.19l.461,1.843,1.36-1.316a14.064,14.064,0,0,0,3.137-4.431c.005-.01.017-.033.022-.044.278-.619.585-1.532,1.119-2.655a13.832,13.832,0,0,1,2.26-3.488c1.95-2.086,4.656-3.42,9.587-1.338,8.508,5.593,6.441,21.445-5.66,26.084-6.217,1.7-9.744-1.112-10.53-1.843-.363-2.141-1.326-4.741-2.15-5.265a52.6,52.6,0,0,1-2.457,18.274c-3.128,9.634-9.9,20.111-25.075,24.088-30.8,8.073-64.643,2.109-77.353-3.817-6.548-3.053-13.163-6.314-18.055-11.868s-8.181-13.431-7.92-26.128l-2.194-.044a61.184,61.184,0,0,0,.219,6.559c-9.837-.195-15.565-4.839-17.989-10.179-2.515-5.541-1.374-11.8,2.742-14.852a7.422,7.422,0,0,1,5.638-1.689,9.543,9.543,0,0,1,4.651,2.238,20.663,20.663,0,0,1,4.19,4.914c.1,1.186.209,2.5.329,3.9.132,1.54.155,1.849.263,3.049-3.211-6.479-9.773-6.649-11.007-3.613,3.569-.713,5.128.691,7.146,2.451-2.539.844-3.739,2.912-3.444,4.695a2.933,2.933,0,0,0,1.623,2.238,3.314,3.314,0,0,0,3.115-.395v-.022h.022a6.747,6.747,0,0,0,2.325-2.281,3.73,3.73,0,0,0,.395-1.141c.033.363.154,1.667.154,1.667H84.3s.279-3.065.987-9.17c1.453-4.856,1.3-11.506.834-17.046-.109-1.3-.241-2.53-.373-3.664a3.693,3.693,0,0,0,3.027,1.075,24.236,24.236,0,0,1,2.106-15.554c1.659-2.664,2.606-6.944,3.247-10.662.279-1.621.248-1.8.395-2.984a20.622,20.622,0,0,0,6.8,7.064l2.106,1.382m81.061-9.324c-.244,0-.478.021-.724.044a7.374,7.374,0,0,0-1.952.461c-2.634,1-5.109,3.484-7.283,7.832l-1.514,3.049,3.005-1.579a11.833,11.833,0,0,1,5.506-1.009c3.423.1,8.093,1.434,13.185,6.647l1.843,1.865.044-2.633c.071-4.556-2.926-10.341-7.305-13.163a8.988,8.988,0,0,0-4.8-1.514Zm.044,2.194a6.548,6.548,0,0,1,3.576,1.163c2.715,1.749,4.961,5.386,5.857,8.556-4.606-3.837-9-5.208-12.373-5.309a15.19,15.19,0,0,0-3.751.373c1.606-2.475,3.241-3.839,4.739-4.41a5.614,5.614,0,0,1,1.426-.351c.176-.018.352-.022.527-.022ZM111.2,308.229c2.769.053,5.829,1.356,8.468,2.962a21.258,21.258,0,0,0-14.611,5.4,27.018,27.018,0,0,0-3.62,3.839,21.8,21.8,0,0,1,2.852-8.336,7.637,7.637,0,0,1,5.748-3.8,8.366,8.366,0,0,1,1.163-.066Zm65.594,7.656a14.356,14.356,0,0,0-2.084.154c-5.4.785-9.327,4.791-11.079,10.442h-.022c-2.747,9.141.008,17.82,1.185,20.863-.282.05-.439.088-.439.088l.5,2.128s14.952-3.7,25.887,10.815c.635-1.069-1.6-2.947-.219-3.707a40.059,40.059,0,0,0,6.779-10.113,22.968,22.968,0,0,0,2.238-10.837,18.455,18.455,0,0,0-5.375-11.737l-.044-.044-.044-.044c-6.434-5.511-12.3-8-17.287-8.007Zm-.022,2.194c4.268.015,9.666,2.167,15.817,7.415.026.022.04.044.066.066a16.044,16.044,0,0,1,4.695,10.289,20.9,20.9,0,0,1-2.04,9.806,37.908,37.908,0,0,1-6.318,9.433,28.726,28.726,0,0,0-21.938-8.007c-.9-2.226-4.032-11-1.338-19.963,1.57-5.067,4.783-8.25,9.3-8.907a11.852,11.852,0,0,1,1.755-.132Zm-55.262,1.645c-.329,0-.671.023-1.009.044-4.058.25-8.765,1.836-13.58,5.945a13.7,13.7,0,0,0-5.046,9.521,19.719,19.719,0,0,0,1.952,9.455A39.515,39.515,0,0,0,109.8,353.9c-2.477,2.281-3.575,3.83-3.773,6.055,0,0,12.531-14.5,33.214-7.788.337-.325.213-.637.461-1.207.765-8.858-.495-15.241-2.128-19.612a23.591,23.591,0,0,0-4.366-7.525,9.926,9.926,0,0,0-3.005-2.084,19.178,19.178,0,0,0-5.879-1.821,18.807,18.807,0,0,0-2.808-.2Zm0,2.194a17.269,17.269,0,0,1,2.5.176,16.994,16.994,0,0,1,5.2,1.623,10.578,10.578,0,0,1,2.347,1.558,20.79,20.79,0,0,1,3.971,6.845c1.445,3.869,2.6,9.524,2.062,17.463a35.364,35.364,0,0,0-9.675-1.36,32.089,32.089,0,0,0-16.256,4.519,36.772,36.772,0,0,1-5.836-8.929,17.809,17.809,0,0,1-1.755-8.424,11.271,11.271,0,0,1,4.278-8.007c4.868-4.155,9.383-5.446,13.163-5.462Zm53.331,4.015a8.587,8.587,0,1,0,8.183,8.578A8.412,8.412,0,0,0,174.841,325.932Zm0,2.325a6.264,6.264,0,1,1-6.143,6.252A6.155,6.155,0,0,1,174.841,328.258Zm-51.686.856a8.312,8.312,0,1,0,7.941,8.315A8.15,8.15,0,0,0,123.155,329.113Zm0,2.325a5.99,5.99,0,1,1-5.879,5.989,5.912,5.912,0,0,1,5.879-5.989Zm97.1,22.552a4.912,4.912,0,0,0,.987,4.848l.11.132.154.11a4.919,4.919,0,0,0,4.278.417,6.548,6.548,0,0,0,2.962-2.128,3.79,3.79,0,0,0,.746-1.382,1.786,1.786,0,0,0-.461-1.777c-1.485-1.334-4.529.987-4.645,2.081.353-.181,2.083-.451,2.341.025.3.545-1.016.89-1.667,1.119a2.6,2.6,0,0,1-2.216-.154,2.409,2.409,0,0,1-.527-2.545,6.948,6.948,0,0,1,2.172-2.676,22.448,22.448,0,0,1,4.717-2.808,7.5,7.5,0,0,0-8.951,4.739Zm-140.6,3.576a4.8,4.8,0,0,1-1.579,1.514c-.6.382-.877.333-1.031.263a.74.74,0,0,1-.373-.592c-.112-.68.186-1.836,2.172-2.369,1.214-.3,1.045.413.812,1.185Zm62.084,2.962a8.154,8.154,0,0,0,.746,6.121,8.749,8.749,0,0,0,4.958,3.686c3.881.964,9.1.461,10.486-1.448-4.551.433-7.686.09-9.784-.614a10.072,10.072,0,0,1-6.406-7.744Zm26.347,14.764c-1.182.978-1.187,2.108-.965,3.664a29.881,29.881,0,0,1-17.77,3.729,46.074,46.074,0,0,1-6.559-1.1c-.605-.139-1.063-.242-1.536-.351a2.923,2.923,0,0,0-.548-3.4,7.12,7.12,0,0,1-5.835,4.519c.377,1.085,2.26,1.476,3.8,1.053.08.149.139.283.241.461a17.551,17.551,0,0,0,1.6,2.325,15.554,15.554,0,0,0,6.121,4.673,12.965,12.965,0,0,0,9.872-.2c3.663-1.466,7.728-4.543,12.219-9.894a7.658,7.658,0,0,0,3.773,1.645c-2.377-2.2-4.276-3.543-4.41-7.13Zm-4.431,7.722a25.573,25.573,0,0,1-7.963,5.616,10.606,10.606,0,0,1-8.249.2,13.406,13.406,0,0,1-5.221-4.015,13.752,13.752,0,0,1-.921-1.316c.34.08.6.146,1.009.241a48.673,48.673,0,0,0,6.867,1.119,33.024,33.024,0,0,0,14.479-1.843Zm-18.186,12.834a11.518,11.518,0,0,0,3.9,2.347,9.066,9.066,0,0,0,8.995-1.755c-6.556,1.11-7.605.823-12.9-.592Zm21.762,13.25a31.536,31.536,0,0,0-.614,4.168c-.206,2.639-.125,5.737,1.426,7.941a22.257,22.257,0,0,1-16.234,1.931,32.546,32.546,0,0,1-6.23-2.15,25.892,25.892,0,0,0-.5-11.649,146.833,146.833,0,0,0,22.157-.241Zm-25.689,56.073s3.429-.266,7.634-.329c3.54.266,8.736,2.642,11.123,6.165.319-2.777-2.854-5.236-4.585-6.055,1.235.077,2.417.194,3.488.351a10.061,10.061,0,0,1,4.453,1.47c-4.8-6.279-17.271-4.525-22.113-1.6Z"/>
      <path id="path4210" d="M163.66,383.01a30.467,30.467,0,0,1-3.9,1.163,32.186,32.186,0,0,1-3.773.636,33.969,33.969,0,0,1-3.532.176c-1.139,0-2.235-.043-3.269-.132a48.685,48.685,0,0,1-6.867-1.119c-.412-.095-.669-.161-1.009-.241a13.766,13.766,0,0,0,.921,1.316,15.349,15.349,0,0,0,2.238,2.238,11.774,11.774,0,0,0,2.984,1.777,10.23,10.23,0,0,0,1.755.526,9.794,9.794,0,0,0,1.952.219,10.682,10.682,0,0,0,2.15-.219,13.7,13.7,0,0,0,2.391-.724,18.917,18.917,0,0,0,3.751-2.084,33.949,33.949,0,0,0,4.212-3.532Z" fill="#fff"/>
      <path id="path4229" d="M173.91,130.06a1.719,1.719,0,1,0,1.719,1.719A1.715,1.715,0,0,0,173.91,130.06Zm-49,3.063a1.719,1.719,0,1,0,1.719,1.719A1.715,1.715,0,0,0,124.91,133.122Z" transform="translate(0 200)" fill="#ccbe8c"/>
      <path id="path3016" d="M129.277,356.608c.308,1.948-3.276,4.407-8,5.491s-8.809.384-9.117-1.565,3.276-4.407,8-5.491S128.969,354.66,129.277,356.608Z" fill="#fed9a2"/>
      <path id="path3018" d="M184.77,361.691c-.943,1.732-5.282,1.5-9.692-.523s-7.219-5.064-6.275-6.8,5.282-1.5,9.692.523S185.713,359.959,184.77,361.691Z" fill="#fed9a2"/>
      <path id="path3020" d="M154.037,365.949c.138,1.183-1.352,1.652-3.329,1.048s-3.691-2.054-3.829-3.237,1.352-1.652,3.329-1.048S153.9,364.766,154.037,365.949Z" fill="#fed9a2"/>
      <path id="path3022" d="M157.234,393.778c.461.7-.334,1.462-1.775,1.7s-2.983-.135-3.443-.835.334-1.462,1.775-1.7S156.774,393.078,157.234,393.778Z" fill="#fed9a2"/>
      <path id="path3025" d="M232.239,344.138c.461.7-.334,1.462-1.775,1.7s-2.983-.135-3.443-.835.334-1.462,1.775-1.7S231.779,343.438,232.239,344.138Z" fill="#fed9a2"/>
      <path id="path3027" d="M71.572,343.418c.694.47.253,1.478-.985,2.253s-2.805,1.022-3.5.552-.253-1.478.985-2.253S70.877,342.949,71.572,343.418Z" fill="#fed9a2"/>
    </g>
  </g>
</svg>
