<svg xmlns="http://www.w3.org/2000/svg" width="156.24" height="166.32" viewBox="0 0 279 297">
  <g id="Group_770" data-name="Group 770" transform="translate(-437 -460)">
    <rect id="Rectangle_391" data-name="Rectangle 391" width="279" height="297" transform="translate(437 460)" fill="#f1f9ff"/>
    <circle id="Ellipse_139" data-name="Ellipse 139" cx="20" cy="20" r="20" transform="translate(558 525)" fill="#fff"/>
    <text id="Add_new_workplace" data-name="Add new workplace" transform="translate(505 647)" fill="#0a0a0a" font-size="11" font-family="Arial-BoldMT, Arial" font-weight="700"><tspan x="-51.345" y="0">Add new workplace</tspan></text>
    <text id="_" data-name="$$" transform="translate(577 694)" font-size="14" font-family="ArialMT, Arial"><tspan x="-7.786" y="0">$$</tspan></text>
    <text id="_2" data-name="+" transform="translate(577 559)" font-size="41" font-family="Arial-BoldMT, Arial" font-weight="700"><tspan x="-11.972" y="0">+</tspan></text>
    <rect id="Rectangle_1468" data-name="Rectangle 1468" width="279" height="297" transform="translate(437 460)" fill="#4b666e"/>
    <path id="Path_145" data-name="Path 145" d="M50,0A50,50,0,1,1,0,50,50,50,0,0,1,50,0Z" transform="translate(527 495)" fill="#fff"/>
    <text id="Private_Lesson" data-name="Private Lesson" transform="translate(578 637)" fill="#0a0a0a" font-size="30" font-family="Arial-BoldMT, Arial" font-weight="700"><tspan x="-106.714" y="0">Private Lesson</tspan></text>
    <text id="_40_PLN_per_hour" data-name="40 PLN per hour" transform="translate(451 677)" font-size="20" font-family="ArialMT, Arial"><tspan x="0" y="0">40 PLN per hour</tspan></text>
    <g id="Page-1" transform="translate(541.386 509.948)">
      <g id="Dribbble-Light-Preview">
        <g id="icons">
          <path id="book-_1207_" data-name="book-[#1207]" d="M267,2648.4a3.75,3.75,0,0,1-2.366,3.573l-22.134,8.216v-44.5l19.866-7.368a3.573,3.573,0,0,1,4.634,3.61Zm-31.5-32.015v43.8l-22.134-8.216A3.75,3.75,0,0,1,211,2648.4v-36.473a3.573,3.573,0,0,1,4.634-3.61l19.866,7.368Zm29.18-16.946-24.521,9.283a3.147,3.147,0,0,1-2.317,0l-24.521-9.283c-4.554-1.732-9.32,1.914-9.32,7.146v44.431a7.511,7.511,0,0,0,4.76,7.146l29.12,10.646a3.335,3.335,0,0,0,2.24,0l29.12-10.646a7.511,7.511,0,0,0,4.76-7.146v-44.431c0-5.232-4.767-8.879-9.321-7.146Z" transform="translate(-204 -2599.002)" fill-rule="evenodd"/>
        </g>
      </g>
    </g>
  </g>
</svg>
