<svg xmlns="http://www.w3.org/2000/svg" width="156.24" height="166.32" viewBox="0 0 279 297">
  <g id="Group_774" data-name="Group 774" transform="translate(-1332 -392)">
    <rect id="Rectangle_1471" data-name="Rectangle 1471" width="279" height="297" transform="translate(1332 392)" fill="#f1f9ff"/>
    <circle id="Ellipse_141" data-name="Ellipse 141" cx="20" cy="20" r="20" transform="translate(1453 457)" fill="#fff"/>
    <text id="Add_new_workplace" data-name="Add new workplace" transform="translate(1400 579)" fill="#0a0a0a" font-size="11" font-family="Arial-BoldMT, Arial" font-weight="700"><tspan x="-51.345" y="0">Add new workplace</tspan></text>
    <text id="_" data-name="$$" transform="translate(1472 626)" font-size="14" font-family="ArialMT, Arial"><tspan x="-7.786" y="0">$$</tspan></text>
    <text id="_2" data-name="+" transform="translate(1472 491)" font-size="41" font-family="Arial-BoldMT, Arial" font-weight="700"><tspan x="-11.972" y="0">+</tspan></text>
    <rect id="Rectangle_1472" data-name="Rectangle 1472" width="279" height="297" transform="translate(1332 392)" fill="#4b666e"/>
    <path id="Path_146" data-name="Path 146" d="M50,0A50,50,0,1,1,0,50,50,50,0,0,1,50,0Z" transform="translate(1414 427)" fill="#fff"/>
    <text id="RESTAURANT" transform="translate(1473 569)" fill="#0a0a0a" font-size="30" font-family="Arial-BoldMT, Arial" font-weight="700"><tspan x="-102.217" y="0">RESTAURANT</tspan></text>
    <text id="_16.25_PLN_per_hour" data-name="16.25 PLN per hour" transform="translate(1346 609)" font-size="20" font-family="ArialMT, Arial"><tspan x="0" y="0">16.25 PLN per hour</tspan></text>
    <path id="path11774" d="M9.913,0,2.55,25.667C1.473,29.423,15.666,31.178,15.434,35L13.594,65.333C13.311,70,20.956,70,20.956,70s7.645,0,7.362-4.667L26.478,35c-.231-3.815,12.762-5.51,12.884-9.333L32,0H28.318l1.841,18.667L24.637,21,22.8,0H19.116L17.275,21l-5.522-2.333L13.594,0ZM72.492,0C67.07,0,58.031,3.056,54.417,7.638c-3.012,3.437-4.012,11.114-4.012,15.7V35c0,3.818,8.032,4.667,11.043,4.667L57.768,65.333C57.1,69.981,65.13,70,65.13,70s7.362,0,7.362-4.667Z" transform="translate(1426.508 442)"/>
  </g>
</svg>
